HIERARCHY
ROOT Hips
{
	OFFSET 0.00000 0.00000 0.00000
	CHANNELS 6 Xposition Yposition Zposition Zrotation Yrotation Xrotation 
	JOINT LHipJoint
	{
		OFFSET 0 0 0
		CHANNELS 3 Zrotation Yrotation Xrotation
		JOINT LeftUpLeg
		{
			OFFSET 1.76014 -1.80163 0.38499
			CHANNELS 3 Zrotation Yrotation Xrotation
			JOINT LeftLeg
			{
				OFFSET 2.46817 -6.78126 0.00000
				CHANNELS 3 Zrotation Yrotation Xrotation
				JOINT LeftFoot
				{
					OFFSET 2.79348 -7.67503 0.00000
					CHANNELS 3 Zrotation Yrotation Xrotation
					JOINT LeftToeBase
					{
						OFFSET 0.09421 -0.25885 1.91403
						CHANNELS 3 Zrotation Yrotation Xrotation
						End Site
						{
							OFFSET 0.00000 -0.00000 0.97975
						}
					}
				}
			}
		}
	}
	JOINT RHipJoint
	{
		OFFSET 0 0 0
		CHANNELS 3 Zrotation Yrotation Xrotation
		JOINT RightUpLeg
		{
			OFFSET -1.77926 -1.80163 0.38499
			CHANNELS 3 Zrotation Yrotation Xrotation
			JOINT RightLeg
			{
				OFFSET -2.51996 -6.92353 0.00000
				CHANNELS 3 Zrotation Yrotation Xrotation
				JOINT RightFoot
				{
					OFFSET -2.76109 -7.58603 0.00000
					CHANNELS 3 Zrotation Yrotation Xrotation
					JOINT RightToeBase
					{
						OFFSET -0.08067 -0.22163 1.86812
						CHANNELS 3 Zrotation Yrotation Xrotation
						End Site
						{
							OFFSET -0.00000 -0.00000 0.95558
						}
					}
				}
			}
		}
	}
	JOINT LowerBack
	{
		OFFSET 0 0 0
		CHANNELS 3 Zrotation Yrotation Xrotation
		JOINT Spine
		{
			OFFSET 0.05537 1.92033 -0.03713
			CHANNELS 3 Zrotation Yrotation Xrotation
			JOINT Spine1
			{
				OFFSET 0.04452 1.90073 0.10860
				CHANNELS 3 Zrotation Yrotation Xrotation
				JOINT Neck
				{
					OFFSET 0 0 0
					CHANNELS 3 Zrotation Yrotation Xrotation
					JOINT Neck1
					{
						OFFSET 0.00903 1.74649 0.02074
						CHANNELS 3 Zrotation Yrotation Xrotation
						JOINT Head
						{
							OFFSET -0.08608 1.67844 -0.12081
							CHANNELS 3 Zrotation Yrotation Xrotation
							End Site
							{
								OFFSET -0.03521 1.83380 -0.05059
							}
						}
					}
				}
				JOINT LeftShoulder
				{
					OFFSET 0 0 0
					CHANNELS 3 Zrotation Yrotation Xrotation
					JOINT LeftArm
					{
						OFFSET 3.28197 0.84325 -0.19106
						CHANNELS 3 Zrotation Yrotation Xrotation
						JOINT LeftForeArm
						{
							OFFSET 5.24318 -0.00000 -0.00000
							CHANNELS 3 Zrotation Yrotation Xrotation
							JOINT LeftHand
							{
								OFFSET 2.98999 -0.00000 0.00000
								CHANNELS 3 Zrotation Yrotation Xrotation
								JOINT LeftFingerBase
								{
									OFFSET 0 0 0
									CHANNELS 3 Zrotation Yrotation Xrotation
									JOINT LeftHandIndex1
									{
										OFFSET 0.72674 -0.00000 0.00000
										CHANNELS 3 Zrotation Yrotation Xrotation
										End Site
										{
											OFFSET 0.58592 -0.00000 0.00000
										}
									}
								}
								JOINT LThumb
								{
									OFFSET 0 0 0
									CHANNELS 3 Zrotation Yrotation Xrotation
									End Site
									{
										OFFSET 0.59487 -0.00000 0.59487
									}
								}
							}
						}
					}
				}
				JOINT RightShoulder
				{
					OFFSET 0 0 0
					CHANNELS 3 Zrotation Yrotation Xrotation
					JOINT RightArm
					{
						OFFSET -3.30963 0.78377 0.14264
						CHANNELS 3 Zrotation Yrotation Xrotation
						JOINT RightForeArm
						{
							OFFSET -5.37045 -0.00000 0.00000
							CHANNELS 3 Zrotation Yrotation Xrotation
							JOINT RightHand
							{
								OFFSET -2.92792 -0.00000 0.00000
								CHANNELS 3 Zrotation Yrotation Xrotation
								JOINT RightFingerBase
								{
									OFFSET 0 0 0
									CHANNELS 3 Zrotation Yrotation Xrotation
									JOINT RightHandIndex1
									{
										OFFSET -0.78450 -0.00000 0.00000
										CHANNELS 3 Zrotation Yrotation Xrotation
										End Site
										{
											OFFSET -0.63248 -0.00000 0.00000
										}
									}
								}
								JOINT RThumb
								{
									OFFSET 0 0 0
									CHANNELS 3 Zrotation Yrotation Xrotation
									End Site
									{
										OFFSET -0.64214 -0.00000 0.64214
									}
								}
							}
						}
					}
				}
			}
		}
	}
}
MOTION
Frames: 11
Frame Time: .0083333
0.4336 17.3870 -1.0066 -2.3420 -0.4926 13.8938 0.0000 0.0000 0.0000 -11.7117 -9.2801 -38.0610 5.2037 13.6096 41.6955 0.4741 -3.0397 -12.3197 1.0527 -6.5240 -18.3127 0.0000 0.0000 0.0000 18.4086 6.5658 -38.9631 -4.2969 -12.5454 37.6897 -0.2465 0.5131 -9.2090 -0.2458 3.1902 -8.8086 5.5755 0.0190 9.5519 2.2078 0.6238 2.6549 -0.9154 0.2918 -2.5563 4.3450 9.5197 10.0551 -15.0762 11.2392 -18.6247 -6.3991 6.5309 -6.0981 -0.0000 -0.0000 0.0000 -95.4553 -35.6803 55.5449 151.7002 -39.3908 -109.6866 -0.0000 -0.0000 32.7100 -10.1283 36.5081 -6.0665 -7.1250 0.0000 -0.0000 -49.6425 59.3302 -20.3933 -0.0000 -0.0000 0.0000 97.3942 37.1867 55.2521 -155.8866 35.2839 -112.2281 0.0000 0.0000 51.3475 30.2616 -5.6964 -3.3144 7.1250 -0.0000 -0.0000 42.2033 -31.8588 18.4283
0.4352 17.3824 -1.0096 -2.3280 -0.4656 13.8713 0.0000 0.0000 0.0000 -11.7279 -9.2688 -38.1027 5.2237 13.6314 41.7803 0.4763 -3.1198 -12.3409 1.0138 -6.4060 -17.9672 0.0000 0.0000 0.0000 18.4008 6.4865 -39.0169 -4.3167 -12.5703 37.7807 -0.2436 0.5222 -9.1511 -0.2956 3.4960 -9.6628 5.5804 -0.0023 9.6110 2.2042 0.5990 2.6861 -0.9193 0.2799 -2.5578 4.2675 9.5384 10.0849 -15.1038 11.2428 -18.6842 -6.4024 6.5423 -6.1253 -0.0000 -0.0000 0.0000 -95.4534 -35.6965 55.5382 151.6918 -39.3984 -109.6813 -0.0000 -0.0000 32.8177 -10.1212 36.5347 -6.0659 -7.1250 0.0000 -0.0000 -49.6677 59.3502 -20.4316 -0.0000 -0.0000 0.0000 97.4150 37.2025 55.3133 -155.8769 35.2942 -112.2224 0.0000 0.0000 51.2784 30.0676 -5.8179 -3.3585 7.1250 -0.0000 -0.0000 42.1642 -32.0013 18.1818
0.4366 17.3780 -1.0128 -2.3239 -0.4526 13.8637 0.0000 0.0000 0.0000 -11.7307 -9.2541 -38.1872 5.2526 13.6627 41.9029 0.4813 -3.1562 -12.4036 1.0223 -6.4321 -18.0433 0.0000 0.0000 0.0000 18.3997 6.4267 -39.1009 -4.3390 -12.5983 37.8829 -0.2359 0.4630 -9.0210 -0.4262 4.1897 -11.6110 5.5910 -0.0043 9.6440 2.1894 0.5971 2.7294 -0.9404 0.2802 -2.5307 4.2213 9.5497 10.0610 -15.1304 11.2430 -18.7231 -6.4048 6.5484 -6.1347 0.0000 0.0000 0.0000 -95.3909 -35.7570 55.4976 151.7177 -39.3748 -109.6977 -0.0000 -0.0000 32.8812 -10.1727 36.5652 -6.1016 -7.1250 0.0000 -0.0000 -49.7500 59.3590 -20.4876 0.0000 0.0000 0.0000 97.4354 37.2760 55.3464 -155.8671 35.3045 -112.2168 0.0000 0.0000 51.2788 29.9030 -6.0146 -3.4485 7.1250 -0.0000 -0.0000 42.1732 -32.2029 17.8844
0.4373 17.3697 -1.0166 -2.3759 -0.4831 13.8667 0.0000 0.0000 0.0000 -11.6687 -9.1960 -38.3167 5.2895 13.7025 42.0587 0.4861 -3.1569 -12.4673 1.0571 -6.5373 -18.3517 0.0000 0.0000 0.0000 18.4426 6.4435 -39.1847 -4.3635 -12.6290 37.9951 -0.2325 0.4571 -8.9571 -0.4680 4.3880 -12.1710 5.6323 0.0001 9.7053 2.1852 0.6108 2.7417 -0.9698 0.2865 -2.5504 4.1848 9.5625 10.0623 -15.1571 11.2468 -18.7633 -6.4107 6.5561 -6.1478 0.0000 0.0000 0.0000 -95.3256 -35.7473 55.4323 151.7571 -39.3389 -109.7227 -0.0000 -0.0000 32.9136 -10.2620 36.4926 -6.1454 -7.1250 0.0000 -0.0000 -49.7427 59.2878 -20.3964 0.0000 0.0000 0.0000 97.4584 37.3088 55.4609 -155.8386 35.3345 -112.2003 0.0000 0.0000 51.2874 29.8242 -6.1947 -3.5398 7.1250 -0.0000 -0.0000 42.2168 -32.3734 17.6603
0.4382 17.3611 -1.0208 -2.4255 -0.5111 13.8814 0.0000 0.0000 0.0000 -11.6138 -9.1250 -38.4761 5.3300 13.7461 42.2296 0.4870 -3.1829 -12.4774 1.0991 -6.6619 -18.7174 0.0000 0.0000 0.0000 18.4904 6.4406 -39.3063 -4.3898 -12.6618 38.1151 -0.2309 0.5127 -8.9090 -0.4782 4.4349 -12.3036 5.6444 0.0268 9.6469 2.2026 0.6390 2.8202 -0.9611 0.3043 -2.4347 4.1841 9.5646 10.0024 -15.2176 11.2386 -18.7812 -6.4265 6.5569 -6.1396 -0.0000 -0.0000 0.0000 -95.3552 -35.8622 55.4942 151.7612 -39.3351 -109.7253 -0.0000 -0.0000 32.9053 -10.2212 36.4993 -6.1216 -7.1250 0.0000 -0.0000 -49.7147 59.3021 -20.3986 -0.0000 -0.0000 0.0000 97.4227 37.4616 55.4655 -155.8123 35.3621 -112.1851 0.0000 0.0000 51.2191 29.8702 -6.1647 -3.5293 7.1250 -0.0000 -0.0000 42.2259 -32.3389 17.7192
0.4396 17.3553 -1.0249 -2.4396 -0.5039 13.8627 0.0000 0.0000 0.0000 -11.5996 -9.0528 -38.6019 5.3684 13.7870 42.3910 0.4883 -3.3474 -12.4793 1.0741 -6.5880 -18.5004 0.0000 0.0000 0.0000 18.5150 6.3774 -39.4091 -4.4192 -12.6982 38.2491 -0.2323 0.5737 -8.9174 -0.5378 4.6989 -13.0517 5.6350 0.0223 9.7057 2.2226 0.6362 2.8415 -0.9351 0.3030 -2.4454 4.0667 9.6010 9.9418 -15.1421 11.2856 -18.7158 -6.3780 6.5781 -6.1169 -0.0000 -0.0000 0.0000 -95.3403 -35.8770 55.4802 151.7796 -39.3183 -109.7370 -0.0000 -0.0000 32.8727 -10.0265 36.4810 -6.0009 -7.1250 0.0000 -0.0000 -49.5198 59.3356 -20.3330 -0.0000 -0.0000 0.0000 97.3728 37.5558 55.4835 -155.8123 35.3621 -112.1851 0.0000 0.0000 51.2046 30.4526 -5.7687 -3.3819 7.1250 -0.0000 -0.0000 42.3284 -31.8847 18.4889
0.4409 17.3492 -1.0266 -2.4260 -0.4902 13.8578 0.0000 0.0000 0.0000 -11.6256 -8.9701 -38.7120 5.4013 13.8219 42.5287 0.4892 -3.4798 -12.4813 1.1020 -6.6703 -18.7424 0.0000 0.0000 0.0000 18.5087 6.2861 -39.5303 -4.4512 -12.7378 38.3947 -0.2376 0.7289 -8.9780 -0.5110 4.5821 -12.7203 5.6250 0.0145 9.7501 2.2264 0.6285 2.8420 -0.9250 0.2986 -2.4701 3.9906 9.6130 9.9885 -15.1153 11.2918 -18.7361 -6.3630 6.5854 -6.1382 0.0000 0.0000 0.0000 -95.3087 -35.8890 55.4226 151.7905 -39.3084 -109.7439 -0.0000 -0.0000 32.8304 -9.9464 36.4178 -5.9435 -7.1250 0.0000 -0.0000 -49.3737 59.3109 -20.2232 0.0000 0.0000 0.0000 97.3226 37.6260 55.5351 -155.8018 35.3732 -112.1790 0.0000 0.0000 51.2584 30.8095 -5.4051 -3.2151 7.1250 -0.0000 -0.0000 42.3326 -31.4978 19.0842
0.4415 17.3420 -1.0291 -2.3650 -0.4741 13.8720 0.0000 0.0000 0.0000 -11.6839 -8.9673 -38.8183 5.4291 13.8513 42.6450 0.4903 -3.5539 -12.4900 1.0823 -6.6123 -18.5719 0.0000 0.0000 0.0000 18.4382 6.2128 -39.6768 -4.4865 -12.7811 38.5544 -0.2417 0.8790 -9.0179 -0.4359 4.2368 -11.7437 5.5778 0.0179 9.8004 2.2068 0.6320 2.8367 -0.9196 0.2996 -2.5036 3.9578 9.6121 10.0832 -15.1228 11.2761 -18.8433 -6.3738 6.5851 -6.1921 -0.0000 -0.0000 0.0000 -95.3162 -35.9684 55.4318 151.7888 -39.3099 -109.7428 -0.0000 -0.0000 32.8135 -10.0152 36.3902 -5.9813 -7.1250 0.0000 -0.0000 -49.4023 59.2756 -20.1959 -0.0000 -0.0000 0.0000 97.2930 37.6479 55.5376 -155.7724 35.4040 -112.1620 0.0000 0.0000 51.3618 30.2880 -5.6047 -3.2648 7.1250 -0.0000 -0.0000 42.1743 -31.7740 18.5338
0.4419 17.3349 -1.0309 -2.3653 -0.4359 13.8887 0.0000 0.0000 0.0000 -11.6701 -8.9899 -38.9205 5.4556 13.8792 42.7557 0.4933 -3.5821 -12.5271 1.0982 -6.6592 -18.7095 0.0000 0.0000 0.0000 18.4387 6.1418 -39.8170 -4.5237 -12.8265 38.7224 -0.2444 1.0120 -9.0348 -0.3943 4.0319 -11.1663 5.5872 0.0165 9.8473 2.1942 0.6349 2.8261 -0.9385 0.3000 -2.5401 3.9611 9.6228 10.1528 -15.1072 11.2879 -18.9407 -6.3813 6.5929 -6.2347 -0.0000 -0.0000 0.0000 -95.3299 -36.0523 55.4703 151.7713 -39.3260 -109.7317 -0.0000 -0.0000 32.7904 -10.0405 36.4260 -6.0016 -7.1250 0.0000 -0.0000 -49.4671 59.2943 -20.2539 -0.0000 -0.0000 0.0000 97.2953 37.6182 55.5141 -155.7799 35.3961 -112.1664 0.0000 0.0000 51.3052 29.9413 -5.8644 -3.3680 7.1250 -0.0000 -0.0000 42.1234 -32.0655 18.0531
0.4428 17.3278 -1.0323 -2.3207 -0.4389 13.8832 0.0000 0.0000 0.0000 -11.7286 -8.9623 -39.0087 5.4860 13.9111 42.8824 0.4980 -3.5934 -12.5879 1.1237 -6.7335 -18.9282 0.0000 0.0000 0.0000 18.3961 6.0516 -39.9528 -4.5637 -12.8750 38.9022 -0.2480 1.1613 -9.0686 -0.3921 4.0207 -11.1348 5.5259 0.0145 9.9312 2.1845 0.6336 2.8033 -0.9148 0.2976 -2.6109 3.9282 9.6468 10.1691 -15.0928 11.3172 -18.9489 -6.3747 6.6086 -6.2404 -0.0000 -0.0000 0.0000 -95.3087 -36.0490 55.4554 151.7997 -39.3000 -109.7497 -0.0000 -0.0000 32.8335 -10.0887 36.4942 -6.0405 -7.1250 0.0000 -0.0000 -49.5908 59.3300 -20.3648 -0.0000 -0.0000 0.0000 97.2902 37.5681 55.5618 -155.8093 35.3653 -112.1833 0.0000 0.0000 51.2144 29.9838 -5.8903 -3.3886 7.1250 -0.0000 -0.0000 42.1561 -32.0800 18.0566
0.4429 17.3199 -1.0336 -2.2806 -0.4734 13.8624 0.0000 0.0000 0.0000 -11.7812 -8.8868 -39.0967 5.5224 13.9490 43.0334 0.5031 -3.7108 -12.6458 1.0785 -6.6012 -18.5390 0.0000 0.0000 0.0000 18.3541 5.9975 -40.0746 -4.6058 -12.9256 39.0907 -0.2498 1.2593 -9.0822 -0.3828 3.9736 -11.0023 5.4562 0.0259 10.0757 2.1692 0.6551 2.7460 -0.8953 0.3045 -2.7501 3.8899 9.6479 10.2787 -15.0759 11.3111 -18.9949 -6.3743 6.6100 -6.2789 0.0000 0.0000 0.0000 -95.2454 -35.9786 55.3987 151.8689 -39.2367 -109.7935 -0.0000 -0.0000 32.8978 -10.2974 36.3621 -6.1481 -7.1250 0.0000 -0.0000 -49.6198 59.1896 -20.2092 0.0000 0.0000 0.0000 97.2637 37.4919 55.5561 -155.8221 35.3519 -112.1907 0.0000 0.0000 51.2480 30.0484 -5.8988 -3.4023 7.1250 -0.0000 -0.0000 42.1917 -32.0751 18.0917
